<svg class="ProductIcon ProductIcon--Capital " width="40" height="40" viewBox="0 0 40 40" fill="none" xmlns="http://www.w3.org/2000/svg">
    
      <title>Capital</title>
    
    <path d="M23.95 14.05l-9.74 2.12-12.18 2.52A2.59 2.59 0 0 0 0 21.22v16.26A2.5 2.5 0 0 0 2.54 40H27V16.57a2.55 2.55 0 0 0-3.05-2.52z" fill="url(#product-icon-capital-SiteMenu-a)"></path><path d="M36.85.05l-21.82 4.6A2.57 2.57 0 0 0 13 7.15V40h24.46c1.42-.2 2.54-1.3 2.54-2.7V2.55c0-1.6-1.52-2.8-3.15-2.5z" fill="url(#product-icon-capital-SiteMenu-b)"></path><path d="M23.95 14.05c1.63-.3 3.05.9 3.05 2.52V40H13V16.42l1.21-.25 9.74-2.12z" fill="url(#product-icon-capital-SiteMenu-c)"></path><defs><linearGradient id="product-icon-capital-SiteMenu-a" x1="13.52" y1="36.35" x2="13.52" y2="18.21" gradientUnits="userSpaceOnUse"><stop stop-color="#00D0E1"></stop><stop offset="1" stop-color="#00F5E7"></stop></linearGradient><linearGradient id="product-icon-capital-SiteMenu-b" x1="26.46" x2="26.46" y2="40" gradientUnits="userSpaceOnUse"><stop stop-color="#00D924"></stop><stop offset="1" stop-color="#00D924"></stop></linearGradient><linearGradient id="product-icon-capital-SiteMenu-c" x1="19.93" y1="40" x2="19.93" y2="14" gradientUnits="userSpaceOnUse"><stop stop-color="#00D722"></stop><stop offset=".85" stop-color="#00BD01"></stop></linearGradient></defs>
  </svg>