<svg class="ProductIcon ProductIcon--DataPipeline " width="40" height="40" viewBox="0 0 30 31" fill="none" xmlns="http://www.w3.org/2000/svg"><path d="M9.375 10.813h-.938C3.75 10.813 0 14.957 0 19.718c0 4.761 3.75 8.906 8.438 8.906H18.75c1.035 0 1.875-.84 1.875-1.875v-6.563H11.25a1.875 1.875 0 0 1-1.875-1.875v-7.5Z" fill="url(#product-icon-data-pipeline-SiteMenu-a)"></path><path d="M20.625 12.688c0-1.036-.84-1.876-1.875-1.876H9.375v7.5c0 1.036.84 1.875 1.875 1.875h9.375v-7.5Z" fill="url(#product-icon-data-pipeline-SiteMenu-b)"></path><path d="M9.375 4.25c0-1.036.84-1.875 1.875-1.875h10.313C26.25 2.375 30 6.52 30 11.281c0 4.762-3.75 8.906-8.438 8.906h-.937v-7.5c0-1.035-.84-1.874-1.875-1.874H9.375V4.25Z" fill="#9A66FF"></path><defs><linearGradient id="product-icon-data-pipeline-SiteMenu-a" x1="9.375" y1="11.75" x2="4.875" y2="29" gradientUnits="userSpaceOnUse"><stop stop-color="#E03071"></stop><stop offset="1" stop-color="#FF5091"></stop></linearGradient><linearGradient id="product-icon-data-pipeline-SiteMenu-b" x1="12.375" y1="20" x2="15.078" y2="9.056" gradientUnits="userSpaceOnUse"><stop stop-color="#9860FE"></stop><stop offset="1" stop-color="#6E00F5"></stop></linearGradient></defs></svg>